<svg xmlns="http://www.w3.org/2000/svg" width="49.249" height="49.248" viewBox="0 0 49.249 49.248"><path d="M27.245 17.373c-.87.066-1.875.133-2.88.268-1.54.208-3.08.47-4.352 1.07-2.477 1.01-4.152 3.15-4.152 6.3 0 3.955 2.55 5.96 5.768 5.96 1.07 0 1.94-.134 2.743-.33 1.273-.405 2.344-1.14 3.617-2.48.736 1.004.938 1.473 2.21 2.543.334.133.67.133.937-.064.805-.67 2.21-1.876 2.945-2.546.335-.27.27-.672.066-1.006-.733-.938-1.472-1.74-1.472-3.55V17.51c0-2.54.202-4.886-1.673-6.626-1.54-1.404-3.95-1.94-5.825-1.94h-.806c-3.415.198-7.03 1.67-7.835 5.89-.133.537.27.738.537.805l3.75.47c.4-.07.604-.405.67-.74.335-1.474 1.54-2.21 2.88-2.345h.268c.804 0 1.673.34 2.143 1.01.536.805.47 1.877.47 2.814v.532zm-.736 7.97c-.47.935-1.28 1.538-2.15 1.74-.134 0-.335.065-.536.065-1.474 0-2.344-1.137-2.344-2.81 0-2.144 1.273-3.147 2.88-3.618.87-.2 1.876-.266 2.88-.266v.803c0 1.538.067 2.745-.736 4.085zm9.883 8.15c-.15 0-.306.036-.45.105-.163.064-.33.14-.484.207l-.23.095-.3.12v.003c-3.257 1.32-6.676 2.094-9.84 2.162-.117.004-.234.004-.35.004-4.975 0-9.035-2.31-13.133-4.58-.146-.08-.29-.12-.435-.12-.185 0-.373.07-.51.2-.138.122-.22.31-.218.505-.004.25.13.475.316.625 3.847 3.34 8.06 6.44 13.73 6.44.11 0 .223-.002.336-.006 3.604-.08 7.683-1.3 10.847-3.287l.018-.01c.416-.25.83-.528 1.22-.84.246-.18.41-.464.41-.76-.01-.517-.45-.867-.928-.87zm4.392-1.84c-.014-.32-.08-.56-.214-.76l-.013-.02-.018-.02c-.135-.146-.26-.2-.403-.262-.413-.15-1.017-.24-1.745-.24-.523 0-1.102.05-1.68.175v-.04l-.585.198-.01.003-.33.105v.02c-.387.157-.74.356-1.065.595-.203.15-.373.35-.382.66-.004.17.08.36.223.476.14.11.306.15.45.15.034 0 .065 0 .095-.003h.027l.022-.006c.282-.06.7-.097 1.185-.17.417-.04.86-.077 1.244-.077.27-.002.514.016.68.055.085.02.148.038.184.056l.023.01c.008.027.018.084.017.168.007.323-.132.92-.316 1.5-.185.583-.405 1.165-.553 1.552-.032.09-.054.187-.054.294-.003.156.06.344.196.47.13.126.303.175.447.175h.003c.217-.002.398-.086.557-.21 1.48-1.333 1.996-3.46 2.017-4.657l-.005-.187z" fill="#A84725"/></svg>
