<?xml version="1.0" encoding="utf-8"?>
<!-- Generator: Adobe Illustrator 16.0.5, SVG Export Plug-In . SVG Version: 6.00 Build 0)  -->
<!DOCTYPE svg PUBLIC "-//W3C//DTD SVG 1.1//EN" "http://www.w3.org/Graphics/SVG/1.1/DTD/svg11.dtd">
<svg version="1.1" id="Layer_1" xmlns="http://www.w3.org/2000/svg" xmlns:xlink="http://www.w3.org/1999/xlink" x="0px" y="0px"
	 width="49.249px" height="49.248px" viewBox="0 0 49.249 49.248" enable-background="new 0 0 49.249 49.248" xml:space="preserve">
<g>
	<path fill="#A84725" d="M24.624,0C11.024,0,0,11.023,0,24.623s11.024,24.625,24.624,24.625c13.601,0,24.625-11.025,24.625-24.625
		S38.225,0,24.624,0z M26.776,14.025c-0.47-0.668-1.339-1.006-2.143-1.006h-0.269c-1.339,0.135-2.544,0.871-2.878,2.346
		c-0.067,0.334-0.269,0.668-0.671,0.736l-3.748-0.469c-0.269-0.066-0.67-0.268-0.537-0.803c0.805-4.221,4.42-5.693,7.834-5.891
		h0.805c1.875,0,4.286,0.535,5.825,1.939c1.875,1.74,1.673,4.086,1.673,6.627v6.027c0,1.809,0.738,2.611,1.474,3.549
		c0.202,0.334,0.269,0.738-0.067,1.006c-0.734,0.67-2.141,1.875-2.945,2.545c-0.268,0.197-0.603,0.197-0.938,0.064
		c-1.271-1.07-1.473-1.539-2.209-2.543c-1.273,1.338-2.344,2.074-3.617,2.479c-0.802,0.197-1.673,0.332-2.743,0.332
		c-3.216,0-5.761-2.006-5.761-5.959c0-3.145,1.676-5.289,4.152-6.295c1.271-0.602,2.812-0.869,4.352-1.07
		c1.005-0.135,2.01-0.201,2.88-0.268V16.84C27.245,15.902,27.312,14.83,26.776,14.025z M36.917,35.123
		c-0.39,0.312-0.806,0.592-1.22,0.84l-0.018,0.012c-3.164,1.988-7.242,3.207-10.848,3.285c-0.113,0.004-0.225,0.006-0.336,0.006
		c-5.667-0.002-9.882-3.102-13.727-6.439c-0.188-0.15-0.32-0.377-0.318-0.625c-0.002-0.193,0.08-0.383,0.217-0.508
		c0.138-0.131,0.326-0.199,0.511-0.199c0.146,0,0.289,0.039,0.433,0.117c4.098,2.273,8.158,4.578,13.134,4.578
		c0.114,0,0.231,0,0.348-0.004c3.165-0.068,6.584-0.842,9.84-2.162V34.02l0.3-0.119l0.231-0.096
		c0.155-0.068,0.321-0.143,0.484-0.207c0.145-0.068,0.3-0.104,0.45-0.104c0.477,0.002,0.918,0.352,0.926,0.871
		C37.328,34.66,37.161,34.941,36.917,35.123z M38.776,36.498c-0.158,0.123-0.34,0.207-0.556,0.209h-0.004
		c-0.145,0-0.315-0.049-0.446-0.174c-0.136-0.127-0.199-0.314-0.196-0.471c0-0.107,0.021-0.205,0.057-0.295
		c0.147-0.387,0.368-0.969,0.552-1.553c0.185-0.578,0.323-1.176,0.318-1.498c0.001-0.084-0.009-0.141-0.017-0.168
		c-0.005-0.002-0.013-0.006-0.024-0.012c-0.035-0.018-0.099-0.037-0.183-0.055c-0.167-0.039-0.41-0.057-0.682-0.055
		c-0.384,0-0.827,0.035-1.245,0.076c-0.486,0.074-0.902,0.113-1.187,0.172l-0.023,0.006l-0.027,0.002
		c-0.029,0.002-0.061,0.004-0.096,0.004c-0.144,0-0.309-0.039-0.449-0.15c-0.143-0.115-0.227-0.307-0.222-0.477
		c0.009-0.309,0.179-0.51,0.382-0.66c0.326-0.238,0.679-0.438,1.065-0.596l-0.001-0.018l0.33-0.107l0.011-0.002l0.585-0.197v0.039
		c0.578-0.127,1.156-0.176,1.68-0.176c0.729,0.002,1.332,0.09,1.746,0.248c0.142,0.061,0.269,0.115,0.402,0.262l0.017,0.02
		l0.014,0.021c0.132,0.199,0.2,0.438,0.212,0.758l0.004,0.188C40.772,33.039,40.258,35.164,38.776,36.498z"/>
	<path fill="#A84725" d="M27.245,20.455c-1.004,0-2.009,0.064-2.88,0.266c-1.605,0.471-2.878,1.475-2.878,3.617
		c0,1.674,0.87,2.811,2.343,2.811c0.201,0,0.402-0.066,0.535-0.066c0.871-0.201,1.676-0.805,2.144-1.74
		c0.804-1.34,0.736-2.547,0.736-4.084V20.455z"/>
</g>
</svg>
