<?xml version="1.0" encoding="utf-8"?>
<!-- Generator: Adobe Illustrator 16.0.5, SVG Export Plug-In . SVG Version: 6.00 Build 0)  -->
<!DOCTYPE svg PUBLIC "-//W3C//DTD SVG 1.1//EN" "http://www.w3.org/Graphics/SVG/1.1/DTD/svg11.dtd">
<svg version="1.1" id="Layer_1" xmlns="http://www.w3.org/2000/svg" xmlns:xlink="http://www.w3.org/1999/xlink" x="0px" y="0px"
	 width="49.249px" height="49.248px" viewBox="0 0 49.249 49.248" enable-background="new 0 0 49.249 49.248" xml:space="preserve">
<g>
	<path fill="#A84725" d="M27.245,17.373c-0.87,0.066-1.875,0.133-2.88,0.268c-1.539,0.201-3.08,0.469-4.352,1.07
		c-2.477,1.006-4.152,3.15-4.152,6.295c0,3.953,2.545,5.959,5.761,5.959c1.07,0,1.941-0.135,2.743-0.332
		c1.273-0.404,2.344-1.141,3.617-2.479c0.736,1.004,0.938,1.473,2.209,2.543c0.335,0.133,0.67,0.133,0.938-0.064
		c0.805-0.67,2.211-1.875,2.945-2.545c0.336-0.268,0.27-0.672,0.067-1.006c-0.735-0.938-1.474-1.74-1.474-3.549v-6.027
		c0-2.541,0.202-4.887-1.673-6.627c-1.539-1.404-3.95-1.939-5.825-1.939h-0.805c-3.414,0.197-7.029,1.67-7.834,5.891
		c-0.133,0.535,0.269,0.736,0.537,0.803l3.748,0.469c0.402-0.068,0.604-0.402,0.671-0.736c0.334-1.475,1.539-2.211,2.878-2.346
		h0.269c0.804,0,1.673,0.338,2.143,1.006c0.536,0.805,0.469,1.877,0.469,2.814V17.373z M26.509,25.342
		c-0.468,0.936-1.272,1.539-2.144,1.74c-0.133,0-0.334,0.066-0.535,0.066c-1.473,0-2.343-1.137-2.343-2.811
		c0-2.143,1.272-3.146,2.878-3.617c0.871-0.201,1.876-0.266,2.88-0.266v0.803C27.245,22.795,27.312,24.002,26.509,25.342z"/>
	<path fill="#A84725" d="M36.398,33.494c-0.15,0-0.306,0.035-0.45,0.104c-0.163,0.064-0.329,0.139-0.484,0.207L35.232,33.9
		l-0.3,0.119v0.004c-3.256,1.32-6.675,2.094-9.84,2.162c-0.116,0.004-0.233,0.004-0.348,0.004c-4.976,0-9.036-2.305-13.134-4.578
		c-0.144-0.078-0.287-0.117-0.433-0.117c-0.185,0-0.373,0.068-0.511,0.199c-0.137,0.125-0.219,0.314-0.217,0.508
		c-0.002,0.248,0.131,0.475,0.318,0.625c3.845,3.338,8.06,6.438,13.727,6.439c0.111,0,0.223-0.002,0.336-0.006
		c3.605-0.078,7.684-1.297,10.848-3.285l0.018-0.012c0.414-0.248,0.83-0.527,1.22-0.84c0.244-0.182,0.411-0.463,0.407-0.758
		C37.316,33.846,36.875,33.496,36.398,33.494z"/>
	<path fill="#A84725" d="M40.789,31.652c-0.012-0.32-0.08-0.559-0.212-0.758l-0.014-0.021l-0.017-0.02
		c-0.134-0.146-0.261-0.201-0.402-0.262c-0.414-0.158-1.018-0.246-1.746-0.248c-0.523,0-1.102,0.049-1.68,0.176V30.48l-0.585,0.197
		l-0.011,0.002l-0.33,0.107l0.001,0.018c-0.387,0.158-0.739,0.357-1.065,0.596c-0.203,0.15-0.373,0.352-0.382,0.66
		c-0.005,0.17,0.079,0.361,0.222,0.477c0.141,0.111,0.306,0.15,0.449,0.15c0.035,0,0.066-0.002,0.096-0.004l0.027-0.002l0.023-0.006
		c0.284-0.059,0.7-0.098,1.187-0.172c0.418-0.041,0.861-0.076,1.245-0.076c0.271-0.002,0.515,0.016,0.682,0.055
		c0.084,0.018,0.147,0.037,0.183,0.055c0.012,0.006,0.02,0.01,0.024,0.012c0.008,0.027,0.018,0.084,0.017,0.168
		c0.005,0.322-0.134,0.92-0.318,1.498c-0.184,0.584-0.404,1.166-0.552,1.553c-0.035,0.09-0.057,0.188-0.057,0.295
		c-0.003,0.156,0.061,0.344,0.196,0.471c0.131,0.125,0.302,0.174,0.446,0.174h0.004c0.216-0.002,0.397-0.086,0.556-0.209
		c1.481-1.334,1.996-3.459,2.017-4.658L40.789,31.652z"/>
</g>
</svg>
