<svg xmlns="http://www.w3.org/2000/svg" width="49.249" height="49.248" viewBox="0 0 49.249 49.248"><path d="M24.624 0C11.024 0 0 11.023 0 24.623s11.024 24.625 24.624 24.625S49.25 38.223 49.25 24.623 38.224 0 24.623 0zm2.152 14.025c-.47-.668-1.34-1.006-2.143-1.006h-.27c-1.338.13-2.543.87-2.877 2.34-.067.332-.27.67-.67.734l-3.75-.47c-.268-.065-.67-.267-.536-.802.805-4.223 4.42-5.695 7.834-5.893h.805c1.87 0 4.28.535 5.82 1.94 1.872 1.74 1.67 4.085 1.67 6.626v6.027c0 1.81.74 2.612 1.474 3.55.202.334.27.738-.067 1.006-.734.67-2.14 1.875-2.945 2.545-.27.2-.605.2-.94.065-1.27-1.07-1.473-1.54-2.21-2.54-1.272 1.338-2.343 2.074-3.616 2.48-.803.196-1.674.33-2.744.33-3.216 0-5.76-2.005-5.76-5.96 0-3.143 1.675-5.29 4.15-6.293 1.272-.604 2.813-.87 4.353-1.07 1.004-.137 2.01-.203 2.88-.27v-.53c0-.94.066-2.01-.47-2.816zm10.14 21.098c-.39.312-.805.592-1.22.84l-.017.012c-3.17 1.988-7.25 3.207-10.85 3.285-.12.004-.23.006-.34.006-5.67-.002-9.88-3.102-13.73-6.44-.187-.15-.32-.376-.317-.624-.003-.193.08-.383.216-.508.14-.13.326-.2.51-.2.147 0 .29.04.434.118 4.1 2.273 8.16 4.578 13.135 4.578.114 0 .23 0 .35-.004 3.164-.068 6.583-.842 9.84-2.162v-.004l.3-.12.23-.095c.155-.068.32-.143.484-.207.145-.068.3-.104.45-.104.477.002.918.352.926.87.007.296-.16.577-.404.76zm1.86 1.375c-.158.123-.34.207-.556.21h-.004c-.145 0-.315-.05-.446-.175-.136-.127-.2-.314-.196-.47 0-.108.02-.206.057-.296.15-.387.37-.97.56-1.553.185-.578.323-1.176.318-1.498.002-.084-.008-.14-.016-.168l-.024-.012c-.035-.018-.1-.037-.183-.055-.167-.03-.41-.05-.682-.05-.383 0-.826.038-1.244.08-.487.073-.903.112-1.188.17l-.024.006-.027.003c-.03 0-.06.003-.096.003-.146 0-.31-.04-.45-.15-.144-.115-.228-.307-.22-.477.006-.31.176-.51.38-.66.325-.24.68-.44 1.064-.597v-.02l.33-.106h.01l.585-.198v.04c.578-.128 1.156-.177 1.68-.177.73.002 1.33.09 1.746.25.14.06.27.113.4.26l.018.02.014.02c.13.2.2.44.21.76l.004.187c-.02 1.2-.534 3.325-2.016 4.66zm-11.53-16.043c-1.005 0-2.01.064-2.88.266-1.606.48-2.88 1.48-2.88 3.62 0 1.68.87 2.81 2.344 2.81.2 0 .402-.06.535-.06.87-.2 1.676-.805 2.144-1.74.8-1.34.73-2.547.73-4.084v-.804z" fill="#A84725"/></svg>
