<svg xmlns="http://www.w3.org/2000/svg" xmlns:xlink="http://www.w3.org/1999/xlink" width="49.249" height="49.248" viewBox="0 0 49.249 49.248"><path fill="#040303" d="M47.957 40.96c0 3.864-3.133 6.997-6.996 6.997H8.29c-3.862 0-6.996-3.133-6.996-6.996V8.33c0-3.86 3.135-7.04 6.997-7.04h32.67c3.868 0 7 3.18 7 7.04v32.63z"/><defs><path id="a" d="M33.522 19.656l-7.14-4.12s-12.998-7.505-13.76-7.95c-.765-.44-1.528-.172-1.528.75v32.378c0 .693.547.993 1.21.61.663-.388 14.08-8.135 14.08-8.135l7.138-4.12s6.054-3.5 6.858-3.96c.806-.467.73-1.106.05-1.47-.68-.365-6.908-3.99-6.908-3.99z"/></defs><clipPath id="b"><use xlink:href="#a" overflow="visible"/></clipPath><linearGradient id="c" gradientUnits="userSpaceOnUse" x1="-969.172" y1="-285.928" x2="-969.172" y2="-283.007" gradientTransform="matrix(12 0 0 12 11650.001 3437.974)"><stop offset="0" stop-color="#287CAE"/><stop offset=".286" stop-color="#4D94B6"/><stop offset=".767" stop-color="#7BBCBB"/><stop offset="1" stop-color="#8CCCBA"/></linearGradient><path clip-path="url(#b)" fill="url(#c)" d="M11.095 6.838v35.054l17.68-17.53z"/><defs><path id="d" d="M33.522 19.656l-7.14-4.12s-12.998-7.505-13.76-7.95c-.765-.44-1.528-.172-1.528.75v32.378c0 .693.547.993 1.21.61.663-.388 14.08-8.135 14.08-8.135l7.138-4.12s6.054-3.5 6.858-3.96c.806-.467.73-1.106.05-1.47-.68-.365-6.908-3.99-6.908-3.99z"/></defs><clipPath id="e"><use xlink:href="#d" overflow="visible"/></clipPath><linearGradient id="f" gradientUnits="userSpaceOnUse" x1="-969.909" y1="-285.203" x2="-968.04" y2="-285.203" gradientTransform="matrix(12 0 0 12 11650.001 3437.974)"><stop offset="0" stop-color="#59BCA9"/><stop offset="1" stop-color="#DEE697"/></linearGradient><path clip-path="url(#e)" fill="url(#f)" d="M33.522 19.656l-7.138-4.12-15.29-8.827v.123l17.68 17.524z"/><defs><path id="g" d="M33.522 19.656l-7.14-4.12s-12.998-7.505-13.76-7.95c-.765-.44-1.528-.172-1.528.75v32.378c0 .693.547.993 1.21.61.663-.388 14.08-8.135 14.08-8.135l7.138-4.12s6.054-3.5 6.858-3.96c.806-.467.73-1.106.05-1.47-.68-.365-6.908-3.99-6.908-3.99z"/></defs><clipPath id="h"><use xlink:href="#g" overflow="visible"/></clipPath><linearGradient id="i" gradientUnits="userSpaceOnUse" x1="-968.974" y1="-284.468" x2="-968.974" y2="-282.996" gradientTransform="matrix(12 0 0 12 11650.001 3437.974)"><stop offset="0" stop-color="#EA423C"/><stop offset=".167" stop-color="#DB4854"/><stop offset=".575" stop-color="#AF4A7B"/><stop offset=".862" stop-color="#954C92"/><stop offset="1" stop-color="#8A4A95"/></linearGradient><path clip-path="url(#h)" fill="url(#i)" d="M11.095 41.89v.13l15.29-8.83 7.137-4.118-4.747-4.71z"/><defs><path id="j" d="M33.522 19.656l-7.14-4.12s-12.998-7.505-13.76-7.95c-.765-.44-1.528-.172-1.528.75v32.378c0 .693.547.993 1.21.61.663-.388 14.08-8.135 14.08-8.135l7.138-4.12s6.054-3.5 6.858-3.96c.806-.467.73-1.106.05-1.47-.68-.365-6.908-3.99-6.908-3.99z"/></defs><clipPath id="k"><use xlink:href="#j" overflow="visible"/></clipPath><linearGradient id="l" gradientUnits="userSpaceOnUse" x1="-967.898" y1="-284.86" x2="-967.898" y2="-284.075" gradientTransform="matrix(12 0 0 12 11650.001 3437.974)"><stop offset="0" stop-color="#F38778"/><stop offset=".119" stop-color="#F68F78"/><stop offset=".713" stop-color="#FCB776"/><stop offset="1" stop-color="#FECA73"/></linearGradient><path clip-path="url(#k)" fill="url(#l)" d="M33.522 19.656l-4.747 4.706 4.747 4.71 8.157-4.71z"/></svg>