<svg xmlns="http://www.w3.org/2000/svg" width="792" height="232.639" viewBox="0 0 792 232.639"><path fill="#A84725" d="M690.366 74.02s-2.36-.498-7.643-.57c-.01-.023-.017-.046-.025-.07-14.05-36.405-65.945-55.884-108.422-51.094-22.875 2.58-75.342 10.25-165.8 50.33-3.11-1.135-5.44-1.97-6.807-2.427C384.9 64.6 269.934 6.155 176.843 6.32c-69.695.12-88.965 31.37-94.12 52.54-52.52 8.742-71.54 36.346-71.94 54.76-.48 21.874 28.74 78.803 117.52 77.92 67.927-.677 147.65-37.393 199.397-65.188 15.617 5.602 30.46 11.402 43.95 17.285 15.5 6.758 31.636 13.196 47.98 19.218-73.008 35.586-88.198 47.267-159.753 50.4-31.936-1.916-50.458-16.604-53.013-16.604s-5.11 1.918-1.916 7.666c0 0 16.604 18.518 54.927 19.798 38.125 1.272 93.33-10.746 177.543-54.894 67.716 23.502 136.307 39.267 175.663 40.203 53.65 1.276 160.314-8.94 167.98-78.56 5.14-46.698-81.753-56.845-90.694-56.845zM581.784 30.59c53.176-1.062 79.782 26.206 87.204 43.477-23.035 2.1-66.608 10.52-139.72 39.646-41.31-12.135-85.053-28-109.517-36.964C464.96 56 530.19 31.62 581.787 30.586zm89.3 55.435c-1.11 15.144-10.978 43.01-58.643 44.203-15.425.387-39.304-4.454-65.556-11.54 46.666-18.188 89.764-30.088 124.2-32.665zm-494.238-61.82c64.35-1.758 186.5 49.178 204.384 58.12.765.383 1.765.863 2.953 1.42-13.894 6.565-28.585 13.848-44.09 21.92-34.79-12.077-156.472-50.68-225.84-49.525-6.628.11-12.872.475-18.764 1.052 11.91-26.554 56.98-32.322 81.354-32.988zM303.948 125.12c-34.49 19.16-96.285 54.927-174.366 54.927-86.863 0-105.386-50.298-106.024-65.786-.678-16.42 20.964-36.14 57.358-41.02-.026 2.595.125 4.257.125 4.616 0 2.554 1.28 71.538 91.977 72.813 0 0 43.43-1.28 43.43-31.94 0-17.245-8.94-13.094-11.814-13.413 0 0-7.664 1.594-7.664 8.623s6.387 4.152 6.706 4.47c.318.32 6.066 21.714-36.726 21.08-42.27-.63-74.233-29.626-74.396-67.266 2.498-.105 5.042-.155 7.65-.12 37.75.503 131.817 21.632 211.572 48.696-2.59 1.42-5.196 2.857-7.826 4.318zm50.958-13.91c8.46-4.868 15.247-8.903 19.938-11.64 4.998-2.915 11.907-6.677 20.275-10.933 21.343 9.266 61.46 25.424 102.52 38.206-6.266 2.7-12.694 5.52-19.328 8.495-9.472 4.263-18.243 8.295-26.43 12.12-43.837-15.448-81.256-30.077-96.978-36.248zm292.026 85.446c-37.886 1.328-112.774-20.86-178.243-43.353 15.49-7.614 30.894-14.766 46.064-21.36 31.79 9.033 62.658 15.174 84.273 13.615 54.943-3.963 89.28-29.03 86.552-60.044.74.006 1.5-.01 2.23.007 60.033 1.28 79.2 20.445 80.475 45.99 1.274 25.547-48.544 62.597-121.356 65.15z"/></svg>
