<?xml version="1.0" encoding="utf-8"?>
<!-- Generator: Adobe Illustrator 16.0.5, SVG Export Plug-In . SVG Version: 6.00 Build 0)  -->
<!DOCTYPE svg PUBLIC "-//W3C//DTD SVG 1.1//EN" "http://www.w3.org/Graphics/SVG/1.1/DTD/svg11.dtd">
<svg version="1.1" id="Layer_1" xmlns="http://www.w3.org/2000/svg" xmlns:xlink="http://www.w3.org/1999/xlink" x="0px" y="0px"
	 width="792px" height="232.639px" viewBox="0 0 792 232.639" enable-background="new 0 0 792 232.639" xml:space="preserve">
<path fill="#A84725" d="M690.366,74.021c0,0-2.36-0.499-7.643-0.571c-0.009-0.023-0.017-0.046-0.025-0.069
	c-14.05-36.406-65.945-55.885-108.422-51.095c-22.875,2.581-75.342,10.249-165.801,50.329c-3.109-1.134-5.438-1.97-6.806-2.426
	C384.903,64.6,269.937,6.158,176.846,6.319C107.149,6.44,87.879,37.69,82.724,58.862c-52.518,8.742-71.538,36.346-71.941,54.759
	c-0.479,21.875,28.742,78.804,117.521,77.921c67.928-0.677,147.649-37.393,199.398-65.188c15.616,5.602,30.461,11.402,43.95,17.285
	c15.498,6.759,31.635,13.197,47.978,19.219c-73.007,35.586-88.197,47.267-159.752,50.4c-31.936-1.916-50.458-16.604-53.013-16.604
	s-5.11,1.916-1.916,7.664c0,0,16.606,18.518,54.929,19.798c38.125,1.272,93.331-10.746,177.543-54.894
	c67.715,23.503,136.306,39.268,175.662,40.204c53.65,1.276,160.313-8.94,167.978-78.561
	C786.201,84.168,699.307,74.021,690.366,74.021z M581.784,30.588c53.176-1.062,79.782,26.206,87.204,43.477
	c-23.035,2.099-66.608,10.521-139.719,39.646c-41.312-12.136-85.054-28.001-109.518-36.965C464.957,56,530.186,31.62,581.784,30.588
	z M671.085,86.023c-1.11,15.144-10.979,43.009-58.644,44.203c-15.428,0.387-39.307-4.454-65.559-11.54
	C593.55,100.501,636.648,88.599,671.085,86.023z M176.846,24.202c64.349-1.757,186.501,49.179,204.384,58.122
	c0.765,0.382,1.765,0.862,2.953,1.418c-13.894,6.566-28.585,13.849-44.089,21.92c-34.792-12.076-156.473-50.679-225.841-49.524
	c-6.628,0.11-12.872,0.475-18.764,1.052C107.401,30.636,152.47,24.868,176.846,24.202z M303.948,125.118
	c-34.49,19.161-96.285,54.927-174.366,54.927c-86.863,0-105.386-50.298-106.024-65.786C22.88,97.84,44.522,78.121,80.916,73.24
	c-0.026,2.593,0.125,4.255,0.125,4.614c0,2.554,1.278,71.538,91.974,72.813c0,0,43.431-1.279,43.431-31.938
	c0-17.245-8.941-13.094-11.815-13.413c0,0-7.665,1.594-7.665,8.623s6.388,4.154,6.707,4.472c0.318,0.318,6.066,21.714-36.726,21.078
	c-42.269-0.629-74.232-29.624-74.395-67.264c2.498-0.105,5.042-0.155,7.65-0.12c37.75,0.503,131.817,21.632,211.572,48.696
	C309.184,122.221,306.578,123.657,303.948,125.118z M354.906,111.207c8.46-4.867,15.247-8.902,19.938-11.639
	c4.998-2.915,11.907-6.677,20.275-10.933c21.346,9.266,61.461,25.424,102.523,38.206c-6.266,2.699-12.694,5.52-19.328,8.494
	c-9.472,4.263-18.243,8.295-26.43,12.119C408.047,132.007,370.628,117.378,354.906,111.207z M646.932,196.654
	c-37.886,1.328-112.774-20.86-178.243-43.353c15.49-7.615,30.897-14.767,46.067-21.36c31.791,9.032,62.658,15.173,84.273,13.614
	c54.944-3.963,89.282-29.029,86.553-60.044c0.74,0.005,1.499-0.01,2.229,0.006c60.035,1.278,79.2,20.443,80.477,45.988
	C769.562,157.052,719.744,194.102,646.932,196.654z"/>
</svg>
